<mxfile host="app.diagrams.net" modified="2023-10-09T14:42:40.785Z" agent="Mozilla/5.0 (X11; Linux x86_64) AppleWebKit/537.36 (KHTML, like Gecko) Chrome/117.0.0.0 Safari/537.36" version="21.8.2" etag="F2KX_3vA0NGU9JOCF51H" type="github">
  <diagram name="Page-1" id="kar6P6oC6d5QlNBPiNpO">
    <mxGraphModel>
      <root>
        <mxCell id="0" />
        <mxCell id="1" parent="0" />
      </root>
    </mxGraphModel>
  </diagram>
</mxfile>
